<svg xmlns="http://www.w3.org/2000/svg" width="463.938" height="330.875" viewBox="0 0 463.938 330.875">
  <defs>
    <style>
      .cls-1 {
        fill: #f871be;
        fill-rule: evenodd;
      }
    </style>
  </defs>
  <path id="общий_контур" data-name="общий контур" class="cls-1" d="M479.779,315.965L426.965,320c-0.819,1.985-1.686,3.954-2.621,5.9l49.79,18.792c4.56,1.721,6.7,7.451,4.774,12.8l-5.222,14.524c-1.923,5.348-7.179,8.288-11.738,6.567l-58.589-22.113C371.384,391.236,318.208,414,258,414c-60.854,0-114.53-23.253-146.386-58.659L50.053,378.576c-4.56,1.721-9.815-1.219-11.738-6.567l-5.223-14.524c-1.923-5.348.215-11.078,4.775-12.8l53.193-20.077c-0.662-1.419-1.271-2.856-1.871-4.3l-56.967-4.348c-4.861-.371-8.527-5.319-8.188-11.053l0.921-15.571c0.339-5.733,4.555-10.08,9.416-9.709L81.091,283.2C81.058,282.132,81,281.071,81,280c0-22.373,7.253-43.461,20.06-62a4.264,4.264,0,0,1-1.06-1c-6.778-9.942-17.71-125.336,2-133,22.971-8.932,87.052,53.218,97.654,69.461a232.061,232.061,0,0,1,113.281-.871C325.127,135.114,387.422,75.221,410,84c18.86,7.333,9.665,113.284,2.9,131.128C426.975,234.35,435,256.464,435,280c0,0.969-.057,1.928-0.084,2.892l42.715-3.26c4.861-.371,9.077,3.976,9.416,9.709l0.92,15.571C488.307,310.646,484.641,315.594,479.779,315.965ZM299,355c-14.932-3.12-27.612-7-43-7s-28.068,3.88-43,7c-5.9,1.233-10.466,1-10-6s29.685-17,53-17,52.534,10,53,17S304.9,356.233,299,355ZM178.5,241A29.5,29.5,0,1,1,149,270.5,29.5,29.5,0,0,1,178.5,241Zm155,0A29.5,29.5,0,1,1,304,270.5,29.5,29.5,0,0,1,333.5,241Z" transform="translate(-24.031 -83.125)"/>
</svg>
